# xmcd
#
# Track frame offsets:
#	150
#	13672
#	29077
#	53097
#	64710
#
# Disc length: 1094 seconds
#
# Revision: 1
# Processed by: cddbd v1.4PL0 Copyright (c) Steve Scherf et al.
# Submitted via: audiograbber 1.80
#
DISCID=3d044405
DTITLE=The Sky Wings - Fly With - Sky1
DYEAR=1900
DGENRE=
TTITLE0=I Hear You Knockin'
TTITLE1=Party Girl
TTITLE2=The Reaper
TTITLE3=Brother John's
TTITLE4=T-Bone Boogie
EXTD=
EXTT0=
EXTT1=
EXTT2=
EXTT3=
EXTT4=
PLAYORDER=
